<svg width="538" height="143" xmlns="http://www.w3.org/2000/svg"><g fill="#FFF" fill-rule="nonzero"><path d="M.64 75.18C.64 35.88 30.73 7.48 71.17 7.48 92.61 7.48 111.04 15.19 123.26 29.48L107.47 44.34C98.534627 34.3469892 85.7037949 28.7214154 72.3 28.92 45.03 28.92 25.3 48.1 25.3 75.18 25.3 102.26 45.05 121.45 72.3 121.45 86.03 121.45 97.87 116.37 107.47 105.84L123.26 120.84C111.04 135.14 92.61 142.84 70.98 142.84 30.73 142.89.64 114.49.64 75.18zM130.35 90.79C130.35 60.7 152.92 39.45 183.76 39.45 214.98 39.45 237.36 60.7 237.36 90.79 237.36 120.88 214.98 142.32 183.76 142.32 152.92 142.32 130.35 120.88 130.35 90.79zM213.66 90.79C213.66 71.61 200.87 59.39 183.76 59.39 166.83 59.39 154.04 71.61 154.04 90.79 154.04 109.97 166.83 122.2 183.76 122.2 200.87 122.2 213.66 110 213.66 90.79zM281 35.31L281 41.31 308.65 41.31 308.65 60.12 281.74 60.12 281.74 141 258.23 141 258.23 60.14 241.68 60.14 241.68 41.33 258.23 41.33 258.23 34.94C258.23 13.87 270.83.15 294.15.15 302.24.15 310.15 1.84 315.4 5.6L308.82 23.28C305.001211 20.6248678 300.470925 19.1821459 295.82 19.14 286.06 19.14 281 24.59 281 35.31zM406.49 82.14L406.49 141 384.3 141 384.3 128.78C378.66 137.43 367.75 142.32 352.71 142.32 329.71 142.32 315.28 129.72 315.28 112.23 315.28 95.49 326.57 82.33 357.03 82.33L383.03 82.33 383.03 80.82C383.03 67.1 374.75 59.01 358.03 59.01 346.75 59.01 335.09 62.77 327.57 69.01L318.35 51.89C329.07 43.62 344.68 39.48 360.85 39.48 389.76 39.45 406.49 53.18 406.49 82.14zM383 109.6L383 97.94 358.74 97.94C342.74 97.94 338.43 103.94 338.43 111.29 338.43 119.75 345.57 125.21 357.61 125.21 369.07 125.21 379 119.94 383 109.6zM537.27 90.79C537.27 122.01 515.64 142.32 486.27 142.32 472.54 142.32 460.88 137.62 452.98 128.03L452.98 141.03 430.6 141.03 430.6 1.46 454.11 1.46 454.11 52.8C462.19 43.8 473.48 39.45 486.27 39.45 515.64 39.45 537.27 59.57 537.27 90.79zM513.39 90.79C513.39 71.61 500.6 59.39 483.67 59.39 466.74 59.39 453.77 71.61 453.77 90.79 453.77 109.97 466.77 122.2 483.67 122.2 500.57 122.2 513.39 110 513.39 90.79z"/></g></svg>