<?xml version="1.0" encoding="UTF-8"?>
<svg width="24px" height="21px" viewBox="0 0 24 21" version="1.1" xmlns="http://www.w3.org/2000/svg" xmlns:xlink="http://www.w3.org/1999/xlink">
    <!-- Generator: Sketch 45.2 (43514) - http://www.bohemiancoding.com/sketch -->
    <title>a209ca7b50dcaab2db7c2d4d1223d4d5</title>
    <desc>Created with Sketch.</desc>
    <defs></defs>
    <g id="grids-GUI" stroke="none" stroke-width="1" fill="none" fill-rule="evenodd">
        <g id="desktop" transform="translate(-130.000000, -4482.000000)" fill-rule="nonzero" fill="#9B9B9B">
            <g id="footer" transform="translate(25.000000, 4255.938639)">
                <g id="Social" transform="translate(105.000000, 224.061361)">
                    <g id="a209ca7b50dcaab2db7c2d4d1223d4d5" transform="translate(0.000000, 2.000000)">
                        <path d="M7.99591837,3.78857143 L7.99591837,19.4987755 C7.99591837,19.7216327 7.93959184,19.9126531 7.82938776,20.0669388 C7.71918367,20.2212245 7.55510204,20.3020408 7.33959184,20.3020408 C7.1877551,20.3020408 7.04081633,20.2653061 6.89877551,20.1942857 L0.668571429,17.0742857 C0.48,16.9861224 0.323265306,16.8342857 0.193469388,16.6261224 C0.0636734694,16.4179592 0,16.2097959 0,16.0040816 L0,0.734693878 C0,0.555918367 0.0440816327,0.404081633 0.134693878,0.279183673 C0.222857143,0.154285714 0.352653061,0.0906122449 0.524081633,0.0906122449 C0.648979592,0.0906122449 0.844897959,0.156734694 1.11428571,0.291428571 L7.95918367,3.72 C7.98122449,3.74938776 7.99591837,3.77142857 7.99591837,3.78857143 L7.99591837,3.78857143 Z M8.85306122,5.14285714 L16.0040816,16.7412245 L8.85306122,13.1779592 L8.85306122,5.14285714 Z M24,5.38285714 L24,19.4987755 C24,19.7216327 23.9363265,19.9028571 23.8114286,20.04 C23.6865306,20.1795918 23.517551,20.2481633 23.3020408,20.2481633 C23.0865306,20.2481633 22.8783673,20.1893878 22.6726531,20.0742857 L16.7681633,17.1281633 L24,5.38285714 Z M23.9608163,3.77632653 C23.9608163,3.80326531 22.8146939,5.67673469 20.524898,9.39428571 C18.235102,13.1142857 16.8930612,15.2889796 16.5012245,15.9232653 L11.277551,7.43265306 L15.6171429,0.374693878 C15.7689796,0.124897959 16.0016327,0 16.3126531,0 C16.437551,0 16.5526531,0.0269387755 16.6604082,0.0808163265 L23.9069388,3.69795918 C23.9412245,3.71265306 23.9608163,3.73959184 23.9608163,3.77632653 L23.9608163,3.77632653 Z" id="Shape"></path>
                    </g>
                </g>
            </g>
        </g>
    </g>
</svg>