<?xml version="1.0" encoding="UTF-8"?>
<svg width="24px" height="24px" viewBox="0 0 24 24" version="1.1" xmlns="http://www.w3.org/2000/svg" xmlns:xlink="http://www.w3.org/1999/xlink">
    <!-- Generator: Sketch 45.2 (43514) - http://www.bohemiancoding.com/sketch -->
    <title>53d5178965feb4de90c9a6c4bc110830</title>
    <desc>Created with Sketch.</desc>
    <defs></defs>
    <g id="grids-GUI" stroke="none" stroke-width="1" fill="none" fill-rule="evenodd">
        <g id="desktop" transform="translate(-249.000000, -4480.000000)" fill-rule="nonzero" fill="#9B9B9B">
            <g id="footer" transform="translate(25.000000, 4255.938639)">
                <g id="Social" transform="translate(105.000000, 224.061361)">
                    <g id="53d5178965feb4de90c9a6c4bc110830" transform="translate(119.000000, 0.000000)">
                        <path d="M14.8432653,15.8595918 C14.9167347,15.7861224 15.0073469,15.7493878 15.117551,15.7493878 C15.2277551,15.7493878 15.3183673,15.7861224 15.3918367,15.8595918 C15.4653061,15.9330612 15.5020408,16.0261224 15.5020408,16.1412245 C15.5020408,16.2563265 15.4653061,16.3493878 15.3918367,16.4228571 C14.7159184,17.0889796 13.6310204,17.4220408 12.1420408,17.4220408 L12.1102041,17.4220408 C10.6212245,17.4220408 9.54367347,17.0889796 8.87510204,16.4228571 C8.79183673,16.3493878 8.75020408,16.2563265 8.75020408,16.1412245 C8.75020408,16.0261224 8.79183673,15.9330612 8.87510204,15.8595918 C8.94857143,15.7861224 9.03918367,15.7493878 9.14938776,15.7493878 C9.25959184,15.7493878 9.35020408,15.7861224 9.42367347,15.8595918 C9.93306122,16.3910204 10.8293878,16.6555102 12.1102041,16.6555102 L12.1420408,16.6555102 C13.4106122,16.6555102 14.3118367,16.3910204 14.8432653,15.8595918 Z M10.4840816,12.4212245 C10.4840816,12.8057143 10.3493878,13.1387755 10.077551,13.4204082 C9.80571429,13.7020408 9.47755102,13.8416327 9.09306122,13.8416327 C8.70857143,13.8416327 8.38040816,13.7020408 8.10857143,13.4204082 C7.83673469,13.1387755 7.70204082,12.8057143 7.70204082,12.4212245 C7.70204082,12.0367347 7.83673469,11.7085714 8.10857143,11.4367347 C8.38040816,11.164898 8.70857143,11.0302041 9.09306122,11.0302041 C9.47755102,11.0302041 9.80571429,11.164898 10.077551,11.4367347 C10.3493878,11.7085714 10.4840816,12.0367347 10.4840816,12.4212245 Z M18.9697959,5.60816327 C18.6685714,5.60816327 18.4065306,5.49795918 18.1885714,5.28 C17.9706122,5.06204082 17.8604082,4.8 17.8604082,4.49877551 C17.8604082,4.18530612 17.9706122,3.92081633 18.1885714,3.70285714 C18.4065306,3.48489796 18.6685714,3.37469388 18.9697959,3.37469388 C19.2832653,3.37469388 19.5477551,3.48489796 19.7657143,3.70285714 C19.9836735,3.92081633 20.0938776,4.1877551 20.0938776,4.49877551 C20.0938776,4.8 19.9836735,5.06204082 19.7657143,5.28 C19.5477551,5.50040816 19.2808163,5.60816327 18.9697959,5.60816327 Z M18.9991837,0 C20.3755102,0 21.5510204,0.489795918 22.5306122,1.46938776 C23.5102041,2.44897959 24,3.63183673 24,5.0155102 L24,18.9844898 C24,20.3706122 23.5102041,21.5510204 22.5306122,22.5306122 C21.5510204,23.5102041 20.3755102,24 18.9991837,24 L5.00081633,24 C3.6244898,24 2.44897959,23.5102041 1.46938776,22.5306122 C0.489795918,21.5510204 0,20.3681633 0,18.9844898 L0,5.0155102 C0,3.62938776 0.489795918,2.44897959 1.46938776,1.46938776 C2.44897959,0.489795918 3.6244898,0 5.00081633,0 L18.9991837,0 Z M20.64,12.6881633 C21.004898,12.5412245 21.3012245,12.3061224 21.5314286,11.9779592 C21.7616327,11.6497959 21.8742857,11.282449 21.8742857,10.8759184 C21.8742857,10.3444898 21.6857143,9.88897959 21.3110204,9.50938776 C20.9363265,9.12979592 20.4832653,8.93877551 19.9518367,8.93877551 C19.3273469,8.93877551 18.8155102,9.18857143 18.4212245,9.68816327 C16.8489796,8.57387755 14.8946939,7.97387755 12.5608163,7.89061224 L13.8587755,3.74938776 L17.0767347,4.51591837 C17.0865306,5.03755102 17.277551,5.47836735 17.6473469,5.84326531 C18.0171429,6.20816327 18.4579592,6.38938776 18.9673469,6.38938776 C19.4889796,6.38938776 19.9371429,6.20571429 20.3118367,5.83591837 C20.6865306,5.46612245 20.875102,5.02040816 20.875102,4.49877551 C20.875102,3.97714286 20.6865306,3.52897959 20.3118367,3.15428571 C19.9371429,2.77959184 19.4889796,2.59102041 18.9673469,2.59102041 C18.5926531,2.59102041 18.2473469,2.69877551 17.9363265,2.91183673 C17.6228571,3.12489796 17.3902041,3.40408163 17.2334694,3.74693878 L13.6873469,2.90204082 C13.5942857,2.88 13.5036735,2.89469388 13.4130612,2.94122449 C13.324898,2.9877551 13.2636735,3.06367347 13.2342857,3.16897959 L11.7502041,7.88816327 C9.41632653,7.92979592 7.43265306,8.51755102 5.79673469,9.65387755 C5.42204082,9.20571429 4.93714286,8.98285714 4.3444898,8.98285714 C3.81306122,8.98285714 3.36,9.17387755 2.98530612,9.55346939 C2.61061224,9.93306122 2.42204082,10.3885714 2.42204082,10.92 C2.42204082,11.3044898 2.52244898,11.6571429 2.72571429,11.9755102 C2.92897959,12.2938776 3.20326531,12.5289796 3.54612245,12.6857143 C3.47265306,12.9453061 3.43591837,13.2269388 3.43591837,13.5306122 C3.43591837,14.5518367 3.82040816,15.4971429 4.59183673,16.3665306 C5.36326531,17.2359184 6.41142857,17.9240816 7.74122449,18.4285714 C9.06857143,18.9330612 10.5208163,19.1853061 12.0930612,19.1853061 C13.6555102,19.1853061 15.1004082,18.9330612 16.4302041,18.4285714 C17.757551,17.9240816 18.8081633,17.2359184 19.5795918,16.3665306 C20.3510204,15.4971429 20.7355102,14.5518367 20.7355102,13.5306122 C20.7355102,13.2489796 20.7036735,12.9697959 20.64,12.6881633 L20.64,12.6881633 Z M15.1714286,11.0302041 C15.5559184,11.0302041 15.8840816,11.164898 16.1559184,11.4367347 C16.4277551,11.7085714 16.562449,12.0367347 16.562449,12.4212245 C16.562449,12.8057143 16.4277551,13.1387755 16.1559184,13.4204082 C15.8840816,13.7020408 15.5559184,13.8416327 15.1714286,13.8416327 C14.7869388,13.8416327 14.4587755,13.7020408 14.1869388,13.4204082 C13.915102,13.1387755 13.7804082,12.8057143 13.7804082,12.4212245 C13.7804082,12.0367347 13.915102,11.7085714 14.1869388,11.4367347 C14.4587755,11.1673469 14.7869388,11.0302041 15.1714286,11.0302041 Z" id="Shape"></path>
                    </g>
                </g>
            </g>
        </g>
    </g>
</svg>