<?xml version="1.0" encoding="utf-8"?>
<!-- Generator: Adobe Illustrator 16.0.0, SVG Export Plug-In . SVG Version: 6.00 Build 0)  -->
<!DOCTYPE svg PUBLIC "-//W3C//DTD SVG 1.1//EN" "http://www.w3.org/Graphics/SVG/1.1/DTD/svg11.dtd">
<svg version="1.1" id="Layer_1" xmlns="http://www.w3.org/2000/svg" xmlns:xlink="http://www.w3.org/1999/xlink" x="0px" y="0px"
	 width="20.098px" height="16.856px" viewBox="0.142 0.028 20.098 16.856" enable-background="new 0.142 0.028 20.098 16.856"
	 xml:space="preserve">
<title>Telegram_logo</title>
<desc>Created with Sketch.</desc>
<g id="grids-GUI">
	<g id="desktop" transform="translate(-902.000000, -3443.000000)">
		<g id="benefits" transform="translate(127.000000, 1913.000000)">
			<g id="jan" transform="translate(711.000000, 1394.000000)">
				<g id="button" transform="translate(0.000000, 126.000000)">
					<g id="Group-8" transform="translate(64.000000, 10.000000)">
						<g id="Telegram_logo">
							<path id="Shape" fill="#9B9B9B" d="M7.701,15.863c-0.599,0-0.497-0.227-0.704-0.796L5.236,9.272l13.553-8.041"/>
							<path id="Shape_1_" fill="#9B9B9B" d="M7.701,15.863c0.462,0,0.666-0.211,0.924-0.462l2.464-2.396l-3.074-1.854"/>
							<path id="Shape_2_" fill="#9B9B9B" d="M8.015,11.152l7.448,5.502c0.85,0.47,1.463,0.227,1.676-0.789L20.17,1.579
								c0.311-1.245-0.475-1.809-1.287-1.44L1.08,7.004c-1.215,0.487-1.208,1.165-0.222,1.467l4.568,1.426l10.577-6.673
								c0.499-0.303,0.957-0.14,0.581,0.194"/>
						</g>
					</g>
				</g>
			</g>
		</g>
	</g>
</g>
</svg>
