<?xml version="1.0" encoding="UTF-8"?>
<svg width="24px" height="20px" viewBox="0 0 24 20" version="1.1" xmlns="http://www.w3.org/2000/svg" xmlns:xlink="http://www.w3.org/1999/xlink">
    <!-- Generator: Sketch 45.2 (43514) - http://www.bohemiancoding.com/sketch -->
    <title>twitter-logo-silhouette</title>
    <desc>Created with Sketch.</desc>
    <defs></defs>
    <g id="grids-GUI" stroke="none" stroke-width="1" fill="none" fill-rule="evenodd">
        <g id="desktop" transform="translate(-169.000000, -4482.000000)" fill-rule="nonzero" fill="#9B9B9B">
            <g id="footer" transform="translate(25.000000, 4255.938639)">
                <g id="Social" transform="translate(105.000000, 224.061361)">
                    <g id="twitter-logo-silhouette" transform="translate(39.000000, 2.000000)">
                        <path d="M23.9999608,2.30654902 C23.1166275,2.69796078 22.1688235,2.96341176 21.1729804,3.08192157 C22.1898039,2.47301961 22.9681569,1.50721569 23.3370588,0.359921569 C22.3832549,0.923803922 21.3304314,1.3332549 20.2086275,1.55521569 C19.3103137,0.596901961 18.032549,0 16.6152941,0 C13.8963137,0 11.6917255,2.20458824 11.6917255,4.92207843 C11.6917255,5.3074902 11.7352157,5.68392157 11.8192157,6.04388235 C7.728,5.83839216 4.10019608,3.87827451 1.67215686,0.899803922 C1.24772549,1.62568627 1.00627451,2.4714902 1.00627451,3.37435294 C1.00627451,5.08254902 1.87611765,6.58976471 3.19588235,7.47156863 C2.38901961,7.44458824 1.63015686,7.22262745 0.965803922,6.85368627 L0.965803922,6.91517647 C0.965803922,9.29972549 2.6634902,11.2898431 4.91454902,11.7427843 C4.50211765,11.8537647 4.06721569,11.9152549 3.61729412,11.9152549 C3.29937255,11.9152549 2.99192157,11.8837647 2.69047059,11.8237647 C3.31733333,13.780902 5.13501961,15.2041176 7.28862745,15.2431373 C5.60443137,16.562902 3.48082353,17.3472549 1.17427451,17.3472549 C0.776862745,17.3472549 0.385411765,17.3232549 0,17.2797647 C2.17909804,18.6790196 4.76611765,19.4948627 7.54658824,19.4948627 C16.6033725,19.4948627 21.5539608,11.9932549 21.5539608,5.4874902 L21.537451,4.85011765 C22.5047451,4.16019608 23.3415686,3.29337255 23.9999608,2.30654902 Z" id="Shape"></path>
                    </g>
                </g>
            </g>
        </g>
    </g>
</svg>