<?xml version="1.0" encoding="UTF-8"?>
<svg width="24px" height="24px" viewBox="0 0 24 24" version="1.1" xmlns="http://www.w3.org/2000/svg" xmlns:xlink="http://www.w3.org/1999/xlink">
    <!-- Generator: Sketch 45.2 (43514) - http://www.bohemiancoding.com/sketch -->
    <title>Shape</title>
    <desc>Created with Sketch.</desc>
    <defs></defs>
    <g id="grids-GUI" stroke="none" stroke-width="1" fill="none" fill-rule="evenodd">
        <g id="desktop" transform="translate(-288.000000, -4480.000000)" fill-rule="nonzero" fill="#9B9B9B">
            <g id="footer" transform="translate(25.000000, 4255.938639)">
                <g id="Social" transform="translate(105.000000, 224.061361)">
                    <path d="M170.001125,0 C166.742091,0 166.333087,0.01425 165.053073,0.0725 C163.77556,0.131 162.903551,0.33325 162.140543,0.63 C161.351285,0.9365 160.681778,1.3465 160.014771,2.01375 C159.347264,2.68075 158.93726,3.35025 158.629757,4.13925 C158.332253,4.9025 158.129751,5.77475 158.072251,7.05175 C158.015,8.33175 158,8.741 158,12 C158,15.259 158.0145,15.66675 158.072501,16.94675 C158.131251,18.22425 158.333503,19.09625 158.630007,19.85925 C158.93676,20.6485 159.346764,21.318 160.014021,21.985 C160.680778,22.6525 161.350285,23.0635 162.139043,23.37 C162.902551,23.66675 163.77481,23.869 165.052073,23.9275 C166.332087,23.98575 166.740841,24 169.999625,24 C173.258909,24 173.666663,23.98575 174.946677,23.9275 C176.22419,23.869 177.097199,23.66675 177.860707,23.37 C178.649715,23.0635 179.318222,22.6525 179.984979,21.985 C180.652486,21.318 181.06249,20.6485 181.369993,19.8595 C181.664997,19.09625 181.867499,18.224 181.927499,16.947 C181.985,15.667 182,15.259 182,12 C182,8.741 181.985,8.332 181.927499,7.052 C181.867499,5.7745 181.664997,4.9025 181.369993,4.1395 C181.06249,3.35025 180.652486,2.68075 179.984979,2.01375 C179.317472,1.34625 178.649965,0.93625 177.859957,0.63 C177.094949,0.33325 176.22244,0.131 174.944927,0.0725 C173.664913,0.01425 173.257409,3.55271368e-15 169.997375,3.55271368e-15 L170.001125,0 Z M168.924614,2.1625 C169.244117,2.162 169.600621,2.1625 170.001125,2.1625 C173.205158,2.1625 173.584912,2.174 174.850176,2.2315 C176.020188,2.285 176.655194,2.4805 177.078199,2.64475 C177.638205,2.86225 178.037459,3.12225 178.457213,3.54225 C178.877217,3.96225 179.13722,4.36225 179.355222,4.92225 C179.519474,5.34475 179.715226,5.97975 179.768477,7.14975 C179.825977,8.41475 179.838477,8.79475 179.838477,11.99725 C179.838477,15.19975 179.825977,15.57975 179.768477,16.84475 C179.714976,18.01475 179.519474,18.64975 179.355222,19.07225 C179.13772,19.63225 178.877217,20.031 178.457213,20.45075 C178.037209,20.87075 177.638455,21.13075 177.078199,21.34825 C176.655694,21.51325 176.020188,21.70825 174.850176,21.76175 C173.585162,21.81925 173.205158,21.83175 170.001125,21.83175 C166.796842,21.83175 166.417088,21.81925 165.152075,21.76175 C163.982062,21.70775 163.347056,21.51225 162.923801,21.348 C162.363795,21.1305 161.963791,20.8705 161.543787,20.4505 C161.123783,20.0305 160.86378,19.6315 160.645778,19.07125 C160.481526,18.64875 160.285774,18.01375 160.232523,16.84375 C160.175023,15.57875 160.163523,15.19875 160.163523,11.99425 C160.163523,8.78975 160.175023,8.41175 160.232523,7.14675 C160.286024,5.97675 160.481526,5.34175 160.645778,4.91875 C160.86328,4.35875 161.123783,3.95875 161.543787,3.53875 C161.963791,3.11875 162.363795,2.85875 162.923801,2.64075 C163.346806,2.47575 163.982062,2.28075 165.152075,2.227 C166.259086,2.177 166.688091,2.162 168.924614,2.1595 L168.924614,2.1625 Z M176.406692,4.155 C175.611683,4.155 174.966677,4.79925 174.966677,5.5945 C174.966677,6.3895 175.611683,7.0345 176.406692,7.0345 C177.2017,7.0345 177.846707,6.3895 177.846707,5.5945 C177.846707,4.7995 177.2017,4.1545 176.406692,4.1545 L176.406692,4.155 Z M170.001125,5.8375 C166.59784,5.8375 163.838561,8.59675 163.838561,12 C163.838561,15.40325 166.59784,18.16125 170.001125,18.16125 C173.40441,18.16125 176.162689,15.40325 176.162689,12 C176.162689,8.59675 173.40416,5.8375 170.000875,5.8375 L170.001125,5.8375 Z M170.001125,8 C172.210148,8 174.001167,9.79075 174.001167,12 C174.001167,14.209 172.210148,16 170.001125,16 C167.791852,16 166.001083,14.209 166.001083,12 C166.001083,9.79075 167.791852,8 170.001125,8 Z" id="Shape"></path>
                </g>
            </g>
        </g>
    </g>
</svg>